<svg xmlns="http://www.w3.org/2000/svg">
  <symbol id="shield-check" viewBox="0 0 24 24">
    <path d="M12 3l7 3v5c0 4.7-2.8 8.4-7 10-4.2-1.6-7-5.3-7-10V6l7-3z" fill="none" stroke="currentColor" stroke-width="2" stroke-linejoin="round"/>
    <path d="M8.5 12l2.2 2.2 4.8-5" fill="none" stroke="currentColor" stroke-width="2" stroke-linecap="round" stroke-linejoin="round"/>
  </symbol>
  <symbol id="lock" viewBox="0 0 24 24">
    <rect x="5" y="10" width="14" height="10" rx="2" fill="none" stroke="currentColor" stroke-width="2"/>
    <path d="M8 10V8a4 4 0 018 0v2" fill="none" stroke="currentColor" stroke-width="2" stroke-linecap="round"/>
  </symbol>
  <symbol id="network" viewBox="0 0 24 24">
    <circle cx="6" cy="6" r="3" fill="none" stroke="currentColor" stroke-width="2"/>
    <circle cx="18" cy="7" r="3" fill="none" stroke="currentColor" stroke-width="2"/>
    <circle cx="12" cy="18" r="3" fill="none" stroke="currentColor" stroke-width="2"/>
    <path d="M8.7 7.4l6.6-.4M7.8 8.7l3 6.5M16.4 9.4l-3 5.5" fill="none" stroke="currentColor" stroke-width="2" stroke-linecap="round"/>
  </symbol>
  <symbol id="play" viewBox="0 0 24 24">
    <path d="M8 5v14l11-7-11-7z" fill="currentColor"/>
  </symbol>
  <symbol id="id-card" viewBox="0 0 24 24">
    <rect x="3" y="5" width="18" height="14" rx="2.5" fill="none" stroke="currentColor" stroke-width="2"/>
    <circle cx="9" cy="11" r="2.2" fill="none" stroke="currentColor" stroke-width="2"/>
    <path d="M6.5 16c.8-1.4 4.2-1.4 5 0M14 10h4M14 14h3" fill="none" stroke="currentColor" stroke-width="2" stroke-linecap="round"/>
  </symbol>
  <symbol id="wallet" viewBox="0 0 24 24">
    <path d="M4 7.5A2.5 2.5 0 016.5 5H18a2 2 0 012 2v10a2 2 0 01-2 2H6.5A2.5 2.5 0 014 16.5v-9z" fill="none" stroke="currentColor" stroke-width="2"/>
    <path d="M16 12h5v4h-5a2 2 0 010-4zM4 8h15" fill="none" stroke="currentColor" stroke-width="2" stroke-linecap="round"/>
  </symbol>
  <symbol id="book" viewBox="0 0 24 24">
    <path d="M5 5.5A2.5 2.5 0 017.5 3H20v16H7.5A2.5 2.5 0 005 21V5.5z" fill="none" stroke="currentColor" stroke-width="2" stroke-linejoin="round"/>
    <path d="M5 18.5A2.5 2.5 0 017.5 16H20" fill="none" stroke="currentColor" stroke-width="2" stroke-linecap="round"/>
  </symbol>
  <symbol id="payroll" viewBox="0 0 24 24">
    <rect x="4" y="5" width="16" height="14" rx="2" fill="none" stroke="currentColor" stroke-width="2"/>
    <path d="M8 9h8M8 13h2M14 13h2M8 16h2M14 16h2" fill="none" stroke="currentColor" stroke-width="2" stroke-linecap="round"/>
  </symbol>
  <symbol id="graduation" viewBox="0 0 24 24">
    <path d="M3 9l9-4 9 4-9 4-9-4z" fill="none" stroke="currentColor" stroke-width="2" stroke-linejoin="round"/>
    <path d="M7 11v4c2.8 2 7.2 2 10 0v-4M21 9v6" fill="none" stroke="currentColor" stroke-width="2" stroke-linecap="round"/>
  </symbol>
  <symbol id="spark" viewBox="0 0 24 24">
    <path d="M12 3l1.8 5.2L19 10l-5.2 1.8L12 17l-1.8-5.2L5 10l5.2-1.8L12 3zM5 16l.8 2.2L8 19l-2.2.8L5 22l-.8-2.2L2 19l2.2-.8L5 16z" fill="none" stroke="currentColor" stroke-width="2" stroke-linejoin="round"/>
  </symbol>
  <symbol id="award" viewBox="0 0 24 24">
    <circle cx="12" cy="8" r="5" fill="none" stroke="currentColor" stroke-width="2"/>
    <path d="M8.5 12.2L7 21l5-3 5 3-1.5-8.8" fill="none" stroke="currentColor" stroke-width="2" stroke-linejoin="round"/>
  </symbol>
  <symbol id="bell" viewBox="0 0 24 24">
    <path d="M18 10a6 6 0 00-12 0c0 5-2 6-2 6h16s-2-1-2-6z" fill="none" stroke="currentColor" stroke-width="2" stroke-linejoin="round"/>
    <path d="M10 20a2 2 0 004 0" fill="none" stroke="currentColor" stroke-width="2" stroke-linecap="round"/>
  </symbol>
  <symbol id="check" viewBox="0 0 24 24">
    <path d="M5 12.5l4.2 4.2L19 6.8" fill="none" stroke="currentColor" stroke-width="2.5" stroke-linecap="round" stroke-linejoin="round"/>
  </symbol>
  <symbol id="phone" viewBox="0 0 24 24">
    <rect x="7" y="2.8" width="10" height="18.4" rx="2.5" fill="none" stroke="currentColor" stroke-width="2"/>
    <path d="M10.5 18h3" fill="none" stroke="currentColor" stroke-width="2" stroke-linecap="round"/>
  </symbol>
  <symbol id="link" viewBox="0 0 24 24">
    <path d="M10.5 13.5a4 4 0 005.7 0l2-2a4 4 0 00-5.7-5.7l-1.1 1.1M13.5 10.5a4 4 0 00-5.7 0l-2 2a4 4 0 105.7 5.7l1.1-1.1" fill="none" stroke="currentColor" stroke-width="2" stroke-linecap="round"/>
  </symbol>
  <symbol id="flag" viewBox="0 0 24 24">
    <path d="M5 21V4M5 4h12l-1.4 4L17 12H5" fill="none" stroke="currentColor" stroke-width="2" stroke-linecap="round" stroke-linejoin="round"/>
  </symbol>
  <symbol id="fingerprint" viewBox="0 0 24 24">
    <path d="M8 11a4 4 0 018 0c0 4-2 5.5-2 9M12 11c0 3.5-.8 5.7-2.5 8M6 15c.5-1.2.8-2.5.8-4a5.2 5.2 0 0110.4 0c0 1.5-.2 2.8-.5 4M5 8a7.5 7.5 0 0114 4M8.5 4.5a9 9 0 018.5.7" fill="none" stroke="currentColor" stroke-width="2" stroke-linecap="round"/>
  </symbol>
  <symbol id="bank" viewBox="0 0 24 24">
    <path d="M3 9l9-5 9 5H3zM5 10v8M10 10v8M14 10v8M19 10v8M4 20h16" fill="none" stroke="currentColor" stroke-width="2" stroke-linecap="round" stroke-linejoin="round"/>
  </symbol>
  <symbol id="briefcase" viewBox="0 0 24 24">
    <rect x="3" y="7" width="18" height="12" rx="2" fill="none" stroke="currentColor" stroke-width="2"/>
    <path d="M9 7V5h6v2M3 12h18" fill="none" stroke="currentColor" stroke-width="2" stroke-linecap="round"/>
  </symbol>
  <symbol id="building" viewBox="0 0 24 24">
    <path d="M5 21V5a2 2 0 012-2h10a2 2 0 012 2v16M3 21h18M9 7h2M13 7h2M9 11h2M13 11h2M9 15h2M13 15h2" fill="none" stroke="currentColor" stroke-width="2" stroke-linecap="round"/>
  </symbol>
  <symbol id="headphones" viewBox="0 0 24 24">
    <path d="M4 13a8 8 0 1116 0v5a2 2 0 01-2 2h-2v-7h4M4 13h4v7H6a2 2 0 01-2-2v-5z" fill="none" stroke="currentColor" stroke-width="2" stroke-linejoin="round"/>
  </symbol>
  <symbol id="person" viewBox="0 0 24 24">
    <circle cx="12" cy="8" r="4" fill="none" stroke="currentColor" stroke-width="2"/>
    <path d="M4.5 20a7.5 7.5 0 0115 0" fill="none" stroke="currentColor" stroke-width="2" stroke-linecap="round"/>
  </symbol>
  <symbol id="users" viewBox="0 0 24 24">
    <circle cx="9" cy="8" r="3.5" fill="none" stroke="currentColor" stroke-width="2"/>
    <circle cx="17" cy="10" r="2.5" fill="none" stroke="currentColor" stroke-width="2"/>
    <path d="M3 20a6 6 0 0112 0M14 19a4.5 4.5 0 017 0" fill="none" stroke="currentColor" stroke-width="2" stroke-linecap="round"/>
  </symbol>
  <symbol id="server" viewBox="0 0 24 24">
    <rect x="4" y="4" width="16" height="6" rx="2" fill="none" stroke="currentColor" stroke-width="2"/>
    <rect x="4" y="14" width="16" height="6" rx="2" fill="none" stroke="currentColor" stroke-width="2"/>
    <path d="M8 7h.01M8 17h.01M12 10v4" fill="none" stroke="currentColor" stroke-width="2" stroke-linecap="round"/>
  </symbol>
  <symbol id="exchange" viewBox="0 0 24 24">
    <path d="M7 7h12l-3-3M17 17H5l3 3M19 7l-3 3M5 17l3-3" fill="none" stroke="currentColor" stroke-width="2" stroke-linecap="round" stroke-linejoin="round"/>
  </symbol>
</svg>
